<svg xmlns="http://www.w3.org/2000/svg" viewBox="0 0 1200 800" role="img" aria-label="Operating Systems Basics Security">
  <defs>
    <linearGradient id="bg" x1="0" y1="0" x2="1" y2="1">
      <stop offset="0%" stop-color="#472d7b"/>
      <stop offset="100%" stop-color="#7a5bb8"/>
    </linearGradient>
  </defs>
  <rect width="1200" height="800" fill="url(#bg)"/>
  <path d="M600 140l260 90v170c0 168-105 258-260 320-155-62-260-152-260-320V230z" fill="#e7dcff" opacity="0.32"/>
  <path d="M600 190l200 68v142c0 129-77 203-200 258-123-55-200-129-200-258V258z" fill="#f4eeff" opacity="0.68"/>
  <rect x="510" y="330" width="180" height="170" rx="18" fill="#4b2d84"/>
  <rect x="540" y="275" width="120" height="78" rx="36" fill="none" stroke="#4b2d84" stroke-width="18"/>
  <circle cx="600" cy="404" r="16" fill="#f3ebff"/>
  <rect x="592" y="420" width="16" height="42" rx="8" fill="#f3ebff"/>
  <text x="126" y="742" fill="#f8f3ff" font-size="50" font-family="Segoe UI, Arial, sans-serif" font-weight="700">Mobile Operating Systems and Security</text>
</svg>
