<svg xmlns="http://www.w3.org/2000/svg" viewBox="0 0 64 64">
  <rect width="64" height="64" rx="14" fill="#0f6c7b"/>
  <path d="M20 19h24a4 4 0 0 1 4 4v18a4 4 0 0 1-4 4H20a4 4 0 0 1-4-4V23a4 4 0 0 1 4-4Z" fill="#f3f6f8"/>
  <path d="M24 28h16M24 34h9" stroke="#0f6c7b" stroke-linecap="round" stroke-width="3"/>
  <circle cx="43" cy="33" r="5" fill="#d67b2c"/>
  <path d="M43 24v4M35.2 28.2l2.8 2.1M50.8 28.2 48 30.3M35.2 37.8 38 35.7M50.8 37.8 48 35.7M43 42v-4" stroke="#d67b2c" stroke-linecap="round" stroke-width="2.4"/>
</svg>
